<?xml version="1.0" standalone="no"?>
<!DOCTYPE svg PUBLIC "-//W3C//DTD SVG 20010904//EN"
 "http://www.w3.org/TR/2001/REC-SVG-20010904/DTD/svg10.dtd">
<svg version="1.0" xmlns="http://www.w3.org/2000/svg"
 width="512.000000pt" height="512.000000pt" viewBox="0 0 512.000000 512.000000"
 preserveAspectRatio="xMidYMid meet">
<metadata>
Created by potrace 1.14, written by Peter Selinger 2001-2017
</metadata>
<g transform="translate(0.000000,512.000000) scale(0.100000,-0.100000)"
fill="#000000" stroke="none">
<path d="M320 5113 c-94 -18 -211 -104 -263 -194 -61 -104 -57 64 -54 -2379
l2 -2235 31 -66 c35 -73 111 -157 171 -187 107 -55 -42 -52 2353 -52 2141 0
2210 0 2269 19 123 38 216 123 263 239 l23 57 0 2250 0 2250 -34 69 c-43 89
-113 159 -199 199 l-67 32 -2235 1 c-1229 1 -2246 -1 -2260 -3z m2480 -1218
c354 -42 614 -207 743 -471 51 -104 93 -245 110 -374 l5 -35 -306 0 -305 0 -4
25 c-9 65 -48 170 -81 220 -45 67 -124 122 -201 141 -31 8 -105 14 -166 14
-103 0 -114 -2 -177 -32 -122 -57 -200 -157 -257 -328 -43 -130 -58 -271 -55
-530 2 -216 4 -244 26 -355 63 -322 244 -477 548 -471 130 3 247 35 312 85
l35 26 0 200 c0 135 -4 200 -11 201 -6 1 -99 3 -206 4 -107 1 -201 3 -207 4
-10 1 -13 51 -13 216 l0 215 535 0 535 0 0 -539 0 -539 -52 -47 c-84 -76 -159
-122 -300 -184 -56 -25 -265 -86 -323 -95 -22 -3 -50 -8 -63 -10 -93 -20 -371
-27 -482 -13 -265 33 -472 131 -643 303 -183 184 -291 437 -326 759 -8 81 -7
525 3 580 2 17 8 50 11 75 12 76 62 240 101 335 142 338 453 571 833 624 63 9
297 6 381 -4z"/>
</g>
</svg>
