<svg viewBox="0 0 1920 125" fill="none" xmlns="http://www.w3.org/2000/svg">
<g clip-path="url(#clip0_313_123)">
<path d="M1920 112.5L1906.67 100C1893.33 87.5 1866.67 62.5 1840 45.8418C1813.33 29.0816 1786.67 20.9184 1760 35.4082C1733.33 50 1706.67 87.5 1680 97.9082C1653.33 108.418 1626.67 91.5816 1600 75C1573.33 58.4184 1546.67 41.5816 1520 35.4082C1493.33 29.0816 1466.67 33.4184 1440 33.3418C1413.33 33.4184 1386.67 29.0816 1360 25C1333.33 20.9184 1306.67 16.5816 1280 29.1582C1253.33 41.5816 1226.67 70.9184 1200 75C1173.33 79.0816 1146.67 58.4184 1120 62.5C1093.33 66.5816 1066.67 95.9184 1040 100C1013.33 104.082 986.667 83.4184 960 72.9082C933.333 62.5 906.667 62.5 880 58.3418C853.333 54.0816 826.667 45.9184 800 43.75C773.333 41.5816 746.667 45.9184 720 52.0918C693.333 58.4184 666.667 66.5816 640 72.9082C613.333 79.0816 586.667 83.4184 560 72.9082C533.333 62.5 506.667 37.5 480 27.0918C453.333 16.5816 426.667 20.9184 400 33.3418C373.333 45.9184 346.667 66.5816 320 83.3418C293.333 100 266.667 112.5 240 100C213.333 87.5 186.667 50 160 37.5C133.333 25 106.667 37.5 80 47.9082C53.3333 58.4184 26.6666 66.5816 13.3333 70.8418L0 75V0L13.3333 0C26.6666 0 53.3333 0 80 0C106.667 0 133.333 0 160 0C186.667 0 213.333 0 240 0C266.667 0 293.333 0 320 0C346.667 0 373.333 0 400 0C426.667 0 453.333 0 480 0C506.667 0 533.333 0 560 0C586.667 0 613.333 0 640 0C666.667 0 693.333 0 720 0C746.667 0 773.333 0 800 0C826.667 0 853.333 0 880 0C906.667 0 933.333 0 960 0C986.667 0 1013.33 0 1040 0C1066.67 0 1093.33 0 1120 0C1146.67 0 1173.33 0 1200 0C1226.67 0 1253.33 0 1280 0C1306.67 0 1333.33 0 1360 0C1386.67 0 1413.33 0 1440 0C1466.67 0 1493.33 0 1520 0C1546.67 0 1573.33 0 1600 0C1626.67 0 1653.33 0 1680 0C1706.67 0 1733.33 0 1760 0C1786.67 0 1813.33 0 1840 0C1866.67 0 1893.33 0 1906.67 0H1920V112.5Z" fill="url(#paint0_linear_313_123)"/>
</g>
<defs>
<linearGradient id="paint0_linear_313_123" x1="1920" y1="0" x2="1920" y2="112.5" gradientUnits="userSpaceOnUse">
<stop stop-color="#23272A"/>
<stop offset="1"/>
</linearGradient>
<clipPath id="clip0_313_123">
<rect width="1920" height="125" fill="white" transform="matrix(-1 0 0 -1 1920 125)"/>
</clipPath>
</defs>
</svg>
