<svg width="1920" height="44" viewBox="0 0 1920 44" fill="none" xmlns="http://www.w3.org/2000/svg">
<path d="M1920 43.8693L1906.67 38.9949C1893.33 34.1205 1866.67 24.3718 1840 17.8726C1813.33 11.3735 1786.67 8.1239 1760 13.8107C1733.33 19.4974 1706.67 34.1205 1680 38.1825C1653.33 42.2445 1626.67 35.7453 1600 29.2462C1573.33 22.747 1546.67 16.2478 1520 13.8107C1493.33 11.3735 1466.67 12.9983 1440 12.9983C1413.33 12.9983 1386.67 11.3735 1360 9.74869C1333.33 8.1239 1306.67 6.49911 1280 11.3735C1253.33 16.2478 1226.67 27.6214 1200 29.2462C1173.33 30.871 1146.67 22.747 1120 24.3718C1093.33 25.9966 1066.67 37.3701 1040 38.9949C1013.33 40.6197 986.667 32.4957 960 28.4338C933.333 24.3718 906.667 24.3718 880 22.747C853.333 21.1222 826.667 17.8726 800 17.0602C773.333 16.2478 746.667 17.8726 720 20.3098C693.333 22.747 666.667 25.9966 640 28.4338C613.333 30.871 586.667 32.4957 560 28.4338C533.333 24.3718 506.667 14.6231 480 10.5611C453.333 6.49911 426.667 8.1239 400 12.9983C373.333 17.8726 346.667 25.9966 320 32.4957C293.333 38.9949 266.667 43.8693 240 38.9949C213.333 34.1205 186.667 19.4974 160 14.6231C133.333 9.74869 106.667 14.6231 80 18.685C53.3334 22.747 26.6667 25.9966 13.3334 27.6214L0 29.2462V-4.19617e-05H13.3334C26.6667 -4.19617e-05 53.3334 -4.19617e-05 80 -4.19617e-05C106.667 -4.19617e-05 133.333 -4.19617e-05 160 -4.19617e-05C186.667 -4.19617e-05 213.333 -4.19617e-05 240 -4.19617e-05C266.667 -4.19617e-05 293.333 -4.19617e-05 320 -4.19617e-05C346.667 -4.19617e-05 373.333 -4.19617e-05 400 -4.19617e-05C426.667 -4.19617e-05 453.333 -4.19617e-05 480 -4.19617e-05C506.667 -4.19617e-05 533.333 -4.19617e-05 560 -4.19617e-05C586.667 -4.19617e-05 613.333 -4.19617e-05 640 -4.19617e-05C666.667 -4.19617e-05 693.333 -4.19617e-05 720 -4.19617e-05C746.667 -4.19617e-05 773.333 -4.19617e-05 800 -4.19617e-05C826.667 -4.19617e-05 853.333 -4.19617e-05 880 -4.19617e-05C906.667 -4.19617e-05 933.333 -4.19617e-05 960 -4.19617e-05C986.667 -4.19617e-05 1013.33 -4.19617e-05 1040 -4.19617e-05C1066.67 -4.19617e-05 1093.33 -4.19617e-05 1120 -4.19617e-05C1146.67 -4.19617e-05 1173.33 -4.19617e-05 1200 -4.19617e-05C1226.67 -4.19617e-05 1253.33 -4.19617e-05 1280 -4.19617e-05C1306.67 -4.19617e-05 1333.33 -4.19617e-05 1360 -4.19617e-05C1386.67 -4.19617e-05 1413.33 -4.19617e-05 1440 -4.19617e-05C1466.67 -4.19617e-05 1493.33 -4.19617e-05 1520 -4.19617e-05C1546.67 -4.19617e-05 1573.33 -4.19617e-05 1600 -4.19617e-05C1626.67 -4.19617e-05 1653.33 -4.19617e-05 1680 -4.19617e-05C1706.67 -4.19617e-05 1733.33 -4.19617e-05 1760 -4.19617e-05C1786.67 -4.19617e-05 1813.33 -4.19617e-05 1840 -4.19617e-05C1866.67 -4.19617e-05 1893.33 -4.19617e-05 1906.67 -4.19617e-05H1920V43.8693Z" fill="url(#paint0_linear_313_128)"/>
<defs>
<linearGradient id="paint0_linear_313_128" x1="1920" y1="-4.19617e-05" x2="1920" y2="43.8693" gradientUnits="userSpaceOnUse">
<stop stop-color="#F1F1F1"/>
<stop offset="1" stop-color="#F1F1F1"/>
</linearGradient>
</defs>
</svg>
