<svg width="22" height="27" viewBox="0 0 22 27" fill="none" xmlns="http://www.w3.org/2000/svg">
<path d="M0 2.10869V24.9348H22V2.10869H0ZM11.9723 19.911C11.9723 22.1325 10.7152 23.1464 8.88348 23.1464C7.22857 23.1464 6.27098 22.2598 5.77991 21.1848L7.46429 20.1301C7.78839 20.7262 8.08304 21.2306 8.79509 21.2306C9.47277 21.2306 9.90491 20.9555 9.90491 19.8804V12.5893H11.9723V19.911ZM16.8634 23.1464C14.9433 23.1464 13.7009 22.1987 13.0969 20.9555L14.7812 19.9467C15.2232 20.6956 15.8027 21.251 16.8192 21.251C17.6737 21.251 18.2237 20.8077 18.2237 20.1912C18.2237 19.4575 17.6638 19.1977 16.7161 18.7646L16.2004 18.5353C14.7076 17.878 13.7205 17.0475 13.7205 15.2999C13.7205 13.6899 14.904 12.467 16.7455 12.467C18.0616 12.467 19.0045 12.9409 19.6821 14.1841L18.0714 15.2541C17.7179 14.5968 17.3348 14.3369 16.7406 14.3369C16.1366 14.3369 15.7536 14.7344 15.7536 15.2541C15.7536 15.8961 16.1366 16.1559 17.0254 16.5584L17.5411 16.7877C19.2991 17.5672 20.2862 18.3672 20.2862 20.1607C20.2862 22.0866 18.8228 23.1464 16.8634 23.1464Z" fill="#FFD600"/>
</svg>
