<svg width="25" height="31" viewBox="0 0 25 31" fill="none" xmlns="http://www.w3.org/2000/svg">
<path d="M25 5.20652V8.04347C25 10.6558 19.4029 12.7717 12.5 12.7717C5.5971 12.7717 0 10.6558 0 8.04347V5.20652C0 2.59415 5.5971 0.478256 12.5 0.478256C19.4029 0.478256 25 2.59415 25 5.20652ZM21.942 13.1677C23.1027 12.7304 24.1685 12.1689 25 11.4774V17.5C25 20.1124 19.4029 22.2283 12.5 22.2283C5.5971 22.2283 0 20.1124 0 17.5V11.4774C0.831473 12.1748 1.89732 12.7304 3.05804 13.1677C5.56362 14.1134 8.90067 14.663 12.5 14.663C16.0993 14.663 19.4364 14.1134 21.942 13.1677ZM0 20.9339C0.831473 21.6313 1.89732 22.1869 3.05804 22.6242C5.56362 23.5699 8.90067 24.1196 12.5 24.1196C16.0993 24.1196 19.4364 23.5699 21.942 22.6242C23.1027 22.1869 24.1685 21.6254 25 20.9339V26.0109C25 28.6232 19.4029 30.7391 12.5 30.7391C5.5971 30.7391 0 28.6232 0 26.0109V20.9339Z" fill="black"/>
</svg>
