<svg width="42" height="28" viewBox="0 0 42 28" fill="none" xmlns="http://www.w3.org/2000/svg">
<path d="M20.7572 27.625C20.6194 27.625 20.4816 27.5834 20.3569 27.5141L19.0969 26.7242C18.9066 26.6133 18.9984 26.5717 19.0641 26.551C19.3134 26.4609 19.3659 26.4401 19.635 26.2738C19.6612 26.2599 19.7006 26.2669 19.7269 26.2807L20.6981 26.8905C20.7309 26.9113 20.7834 26.9113 20.8162 26.8905L24.6094 24.5761C24.6422 24.5553 24.6684 24.5137 24.6684 24.4652V19.8433C24.6684 19.7948 24.6487 19.7533 24.6094 19.7325L20.8162 17.425C20.7834 17.4042 20.7375 17.4042 20.6981 17.425L16.905 19.7325C16.8656 19.7533 16.8459 19.8018 16.8459 19.8433V24.4652C16.8459 24.5068 16.8722 24.5484 16.905 24.5692L17.9419 25.1997C18.5062 25.4977 18.8541 25.1443 18.8541 24.7978V20.2314C18.8541 20.169 18.9 20.1136 18.9656 20.1136H19.4447C19.5037 20.1136 19.5562 20.1621 19.5562 20.2314V24.7978C19.5562 25.5947 19.1494 26.0451 18.4341 26.0451C18.2175 26.0451 18.0403 26.0451 17.5612 25.7957L16.5637 25.1928C16.3209 25.0404 16.1634 24.7632 16.1634 24.4652V19.8433C16.1634 19.5454 16.3144 19.2613 16.5637 19.1158L20.3569 16.8014C20.5997 16.6558 20.9147 16.6558 21.1509 16.8014L24.9441 19.1158C25.1869 19.2682 25.3444 19.5454 25.3444 19.8433V24.4652C25.3444 24.7632 25.1934 25.0473 24.9441 25.1928L21.1509 27.5072C21.0394 27.5834 20.9016 27.625 20.7572 27.625ZM23.8219 23.0655C23.8219 22.1993 23.2706 21.9707 22.1025 21.8044C20.9212 21.638 20.8031 21.5549 20.8031 21.2639C20.8031 21.0213 20.9016 20.7026 21.7744 20.7026C22.5553 20.7026 22.8441 20.8827 22.9622 21.4371C22.9753 21.4925 23.0147 21.5272 23.0672 21.5272H23.5594C23.5922 21.5272 23.6184 21.5133 23.6381 21.4925C23.6578 21.4648 23.6709 21.4371 23.6644 21.4025C23.5856 20.4462 22.9884 20.0027 21.7744 20.0027C20.6916 20.0027 20.0484 20.4878 20.0484 21.2916C20.0484 22.1716 20.6916 22.4072 21.7284 22.5181C22.9688 22.6497 23.0672 22.8368 23.0672 23.0932C23.0672 23.5436 22.7259 23.7307 21.9253 23.7307C20.9212 23.7307 20.6981 23.4674 20.6259 22.9408C20.6194 22.8853 20.5734 22.8438 20.5144 22.8438H20.0222C19.9631 22.8438 19.9106 22.8923 19.9106 22.9616C19.9106 23.6337 20.2584 24.4375 21.9187 24.4375C23.1328 24.4375 23.8219 23.9386 23.8219 23.0655ZM27.3984 19.5939C27.3984 20.0166 27.0703 20.363 26.67 20.363C26.2697 20.363 25.9416 20.0166 25.9416 19.5939C25.9416 19.1573 26.2828 18.8247 26.67 18.8247C27.0637 18.8178 27.3984 19.1573 27.3984 19.5939ZM27.2803 19.5939C27.2803 19.2336 27.0047 18.9495 26.6634 18.9495C26.3287 18.9495 26.0531 19.2336 26.0531 19.5939C26.0531 19.9542 26.3287 20.2452 26.6634 20.2452C27.0047 20.2383 27.2803 19.9473 27.2803 19.5939ZM26.985 20.0235H26.8144C26.8078 19.9819 26.7816 19.7602 26.7816 19.7533C26.7684 19.7048 26.7553 19.677 26.6962 19.677H26.5519V20.0235H26.3944V19.1573H26.6766C26.775 19.1573 26.9653 19.1573 26.9653 19.386C26.9653 19.5454 26.8669 19.58 26.8078 19.6008C26.9194 19.6077 26.9259 19.684 26.9456 19.7948C26.9522 19.8641 26.9653 19.9819 26.985 20.0235ZM26.8012 19.4137C26.8012 19.2959 26.7225 19.2959 26.6831 19.2959H26.5519V19.5385H26.6766C26.7816 19.5385 26.8012 19.4622 26.8012 19.4137ZM9.01031 9.53941C9.01031 9.35231 8.91844 9.18601 8.7675 9.09593L4.74469 6.64987C4.67906 6.60829 4.60031 6.5875 4.52156 6.58057H4.48219C4.40344 6.58057 4.33125 6.60829 4.25906 6.64987L0.242812 9.09593C0.091875 9.18601 0 9.35924 0 9.53941L0.0065625 16.1223C0.0065625 16.2124 0.0525 16.2955 0.124687 16.344C0.196875 16.3925 0.28875 16.3925 0.3675 16.344L2.75625 14.8958C2.90719 14.7988 2.99906 14.6325 2.99906 14.4523V11.3757C2.99906 11.1955 3.09094 11.0223 3.24187 10.9322L4.25906 10.3155C4.33781 10.267 4.41656 10.2462 4.50187 10.2462C4.58719 10.2462 4.6725 10.267 4.74469 10.3155L5.76188 10.9322C5.91281 11.0223 6.00469 11.1955 6.00469 11.3757V14.4523C6.00469 14.6325 6.09656 14.8057 6.2475 14.8958L8.63625 16.344C8.70844 16.3925 8.80688 16.3925 8.87906 16.344C8.95125 16.3025 8.99719 16.2124 8.99719 16.1223L9.01031 9.53941ZM31.0078 2.35367V14.577C31.0078 14.7572 30.9159 14.9304 30.765 15.0205L26.7422 17.4735C26.5912 17.5636 26.4075 17.5636 26.2566 17.4735L22.2337 15.0205C22.0828 14.9304 21.9909 14.7572 21.9909 14.577V9.67106C21.9909 9.4909 22.0828 9.31767 22.2337 9.22758L26.2566 6.7746C26.4075 6.68451 26.5912 6.68451 26.7422 6.7746L27.7462 7.38438C27.8578 7.45367 28.0022 7.36359 28.0022 7.23193V0.718346C28.0022 0.524325 28.1991 0.399596 28.3631 0.496607L30.7584 1.91019C30.9094 1.99335 31.0078 2.16658 31.0078 2.35367ZM27.9891 11.2856C27.9891 11.2371 27.9628 11.1955 27.93 11.1747L26.5519 10.3294C26.5125 10.3086 26.4666 10.3086 26.4272 10.3294L25.0491 11.1747C25.0097 11.1955 24.99 11.2371 24.99 11.2856V12.9694C24.99 13.0179 25.0163 13.0595 25.0491 13.0803L26.4272 13.9188C26.4666 13.9395 26.5125 13.9395 26.5453 13.9188L27.9234 13.0803C27.9628 13.0595 27.9825 13.0179 27.9825 12.9694V11.2856H27.9891ZM41.7572 11.2371C41.9081 11.147 42 10.9738 42 10.7936V9.6087C42 9.42854 41.9081 9.2553 41.7572 9.16522L37.7606 6.71223C37.6097 6.62215 37.4259 6.62215 37.275 6.71223L33.2522 9.16522C33.1012 9.2553 33.0094 9.42854 33.0094 9.6087V14.5147C33.0094 14.7018 33.1012 14.8681 33.2522 14.9582L37.2487 17.3626C37.3931 17.4527 37.5769 17.4527 37.7278 17.3626L40.1428 15.9421C40.3069 15.8451 40.3069 15.5957 40.1428 15.4986L36.0938 13.0457C36.015 12.9972 35.9691 12.914 35.9691 12.8239V11.2856C35.9691 11.1955 36.015 11.1124 36.0938 11.0639L37.3537 10.2947C37.4259 10.2462 37.5244 10.2462 37.5966 10.2947L38.8566 11.0639C38.9287 11.1124 38.9812 11.1955 38.9812 11.2856V12.4913C38.9812 12.6853 39.1847 12.8101 39.3487 12.713L41.7572 11.2371ZM36.6844 11.4796C36.6581 11.5004 36.6384 11.5281 36.6384 11.5628V12.5052C36.6384 12.5398 36.6581 12.5745 36.6844 12.5883L37.4587 13.0595C37.485 13.0803 37.5244 13.0803 37.5506 13.0595L38.325 12.5883C38.3512 12.5675 38.3709 12.5398 38.3709 12.5052V11.5628C38.3709 11.5281 38.3512 11.4935 38.325 11.4796L37.5506 11.0084C37.5244 10.9876 37.485 10.9876 37.4587 11.0084L36.6844 11.4796ZM20.0025 14.4939V9.61563C20.0025 9.43547 19.8975 9.26223 19.7466 9.17215L15.7369 6.73302C15.5991 6.64987 15.4087 6.63601 15.2512 6.73302L11.2416 9.17215C11.0906 9.26223 10.9856 9.42854 10.9856 9.61563V14.4939C10.9856 14.6879 11.1103 14.8542 11.2481 14.9374L15.2644 17.3765C15.4219 17.4735 15.6056 17.4666 15.75 17.3765L19.7531 14.9374C19.8712 14.8681 19.9566 14.7503 19.9894 14.6117C19.9959 14.577 20.0025 14.5355 20.0025 14.4939ZM15.1266 5.83913L15.0741 5.87378H15.1462L15.1266 5.83913ZM20.1272 14.8611L20.1009 14.8126V14.875L20.1272 14.8611Z" fill="#1DB72C"/>
</svg>
